# File produced by Open Asset Import Library (http://www.assimp.sf.net)
# (assimp v3.2.202087883)

mtllib model_normalized.mtl

# 40 vertex positions
v 0.349148 -0.011461 -0.213914
v -0.349148 -0.011461 0.213914
v -0.349148 -0.011461 -0.213914
v 0.349148 -0.011461 0.213914
v -0.349148 -0.001626 -0.213914
v 0.349148 -0.001626 0.213914
v -0.349148 -0.001626 0.213914
v 0.349148 -0.001626 -0.213914
v 0.392301 0.213732 0.240353
v -0.392301 0.213732 -0.240354
v -0.392301 0.213732 0.240353
v 0.392301 0.213732 -0.240354
v -0.392301 0.170225 -0.196653
v -0.348601 0.170225 0.240353
v 0.392301 0.170225 -0.196653
v 0.348601 0.170225 -0.240354
v -0.392301 -0.177830 -0.196653
v -0.392301 0.170225 0.196653
v -0.392301 -0.177830 0.240353
v 0.348601 0.170225 0.240353
v 0.392301 -0.177830 -0.240354
v 0.392301 0.170225 0.196653
v -0.348601 0.170225 -0.240354
v -0.392301 -0.177830 -0.240354
v -0.348601 0.170225 -0.196653
v -0.348601 -0.177830 0.240353
v 0.392301 -0.177830 0.240353
v 0.392301 -0.177830 -0.196653
v 0.392301 -0.177830 0.196653
v 0.348601 0.170225 0.196653
v 0.348601 -0.177830 -0.240354
v -0.348601 -0.177830 -0.240354
v -0.348601 -0.177830 -0.196653
v -0.348601 0.170225 0.196653
v -0.392301 -0.177830 0.196653
v -0.348601 -0.177830 0.196653
v 0.348601 -0.177830 0.240353
v 0.348601 0.170225 -0.196653
v 0.348601 -0.177830 -0.196653
v 0.348601 -0.177830 0.196653

# 75 UV coordinates
vt -2.95833 2.16616 0
vt 0 0 0
vt 0 2.16616 0
vt -2.95833 -0 0
vt -1.8125 0.049797 0
vt -1.8125 0 0
vt 0 0.049797 0
vt 1.8125 -0 0
vt 2.95833 0 0
vt -2.95833 0.049797 0
vt 1.8125 0.049797 0
vt 2.95833 0.049797 0
vt -11.945 1.945 0
vt -11.055 1.055 0
vt -11.055 1.945 0
vt -11.945 1.055 0
vt 2.95833 2.16616 0
vt -12 2 0
vt -11 1 0
vt -11 2 0
vt -12 1 0
vt -10.9243 1.09091 0
vt -11.0557 2.06627 0
vt -12.0757 1.09091 0
vt -11.9443 0.933732 0
vt -10.3184 1.09091 0
vt -10.9243 1.90909 0
vt -11 2.59643 0
vt -11.9443 2.06627 0
vt -12.6816 1 0
vt -12.0757 1.90909 0
vt -12 0.403568 0
vt -11.0557 0.93373 0
vt -10.3184 1 0
vt -11 0.560744 0
vt -10.9443 1.09091 0
vt -11 1.09091 0
vt -11 1.90909 0
vt -10.3184 2 0
vt -11.0557 2.59643 0
vt -12 2.59643 0
vt -10.9443 2 0
vt -10.0557 2 0
vt -12.6816 1.09091 0
vt -12.6816 1.90909 0
vt -10.0557 1.90909 0
vt -10 1.09091 0
vt -10 1.90909 0
vt -11.9443 0.403568 0
vt -11 0.403566 0
vt -10.0557 0.999998 0
vt -10.9443 1 0
vt -10.9443 0.560744 0
vt -10.9443 1.90909 0
vt -10.3184 1.90909 0
vt -11.5501 1.90909 0
vt -11.5501 2 0
vt -11.9443 2.59643 0
vt -12.6816 2 0
vt -10.0557 1.09091 0
vt -10 0.999998 0
vt -10.0557 0.56074 0
vt -10 0.56074 0
vt -10 2.43926 0
vt -9.44986 1.09091 0
vt -9.44986 0.999998 0
vt -11.0557 0.403566 0
vt -11.5501 1 0
vt -11.5501 1.09091 0
vt -10.9443 2.43926 0
vt -11 2.43926 0
vt -9.44986 2 0
vt -10 2 0
vt -10.0557 2.43926 0
vt -9.44986 1.90909 0

# 6 vertex normals
vn 0 -0.0254 0
vn 0 0.0254 0
vn -0.0416422 0 -0
vn 0.0416422 0 0
vn 0 0 -0.0255132
vn 0 0 0.0255132

# Mesh 'mesh1_mesh1-geometry' with 24 faces
g mesh1_mesh1-geometry
usemtl material_0_1_8
f  1/1/1 2/2/1 3/3/1
f  2/2/1 1/1/1 4/4/1
f  3/3/2 2/2/2 1/1/2
f  4/4/2 1/1/2 2/2/2
f  2/2/3 5/5/3 3/6/3
f  3/6/4 5/5/4 2/2/4
f  5/7/5 1/4/5 3/2/5
f  3/2/6 1/4/6 5/7/6
f  1/8/4 6/7/4 4/2/4
f  4/2/3 6/7/3 1/8/3
f  4/9/6 7/7/6 2/2/6
f  2/2/5 7/7/5 4/9/5
f  5/5/3 2/2/3 7/7/3
f  7/7/4 2/2/4 5/5/4
f  1/4/5 5/7/5 8/10/5
f  8/10/6 5/7/6 1/4/6
f  6/7/4 1/8/4 8/11/4
f  8/11/3 1/8/3 6/7/3
f  7/7/6 4/9/6 6/12/6
f  6/12/5 4/9/5 7/7/5
f  6/13/2 5/14/2 7/15/2
f  7/2/1 5/3/1 6/9/1
f  5/14/2 6/13/2 8/16/2
f  8/17/1 6/9/1 5/3/1

# Mesh 'mesh2_mesh2-geometry' with 60 faces
g mesh2_mesh2-geometry
usemtl material_0_1_8
f  9/18/2 10/19/2 11/20/2
f  10/19/2 9/18/2 12/21/2
f  10/19/3 13/22/3 11/20/3
f  11/20/6 14/23/6 9/18/6
f  15/24/4 12/21/4 9/18/4
f  12/21/5 16/25/5 10/19/5
f  10/19/3 17/26/3 13/22/3
f  11/20/3 13/22/3 18/27/3
f  14/23/6 11/20/6 19/28/6
f  20/29/6 9/18/6 14/23/6
f  12/21/4 15/24/4 21/30/4
f  15/24/4 9/18/4 22/31/4
f  16/25/5 12/21/5 21/32/5
f  23/33/5 10/19/5 16/25/5
f  17/26/3 10/19/3 24/34/3
f  17/35/6 25/36/6 13/37/6
f  25/36/1 18/38/1 13/37/1
f  11/20/3 18/27/3 19/39/3
f  14/23/6 19/28/6 26/40/6
f  9/18/6 20/29/6 27/41/6
f  14/42/1 25/36/1 20/43/1
f  28/44/4 21/30/4 15/24/4
f  22/31/4 9/18/4 29/45/4
f  30/46/1 15/47/1 22/48/1
f  16/25/5 21/32/5 31/49/5
f  10/19/5 23/33/5 24/50/5
f  16/51/1 25/36/1 23/52/1
f  32/52/1 17/37/1 24/19/1
f  25/36/6 17/35/6 33/53/6
f  18/38/1 25/36/1 34/54/1
f  19/39/3 18/27/3 35/55/3
f  19/20/1 36/54/1 26/42/1
f  36/56/4 14/42/4 26/57/4
f  27/41/6 20/29/6 37/58/6
f  29/45/4 9/18/4 27/59/4
f  34/54/1 25/36/1 14/42/1
f  20/43/1 25/36/1 38/60/1
f  39/60/1 21/61/1 28/47/1
f  15/47/6 39/62/6 28/63/6
f  29/64/5 30/46/5 22/48/5
f  15/47/1 30/46/1 38/60/1
f  21/61/1 39/60/1 31/51/1
f  39/65/3 16/51/3 31/66/3
f  24/50/5 23/33/5 32/67/5
f  38/60/1 25/36/1 16/51/1
f  25/36/4 32/68/4 23/52/4
f  17/37/1 32/52/1 33/36/1
f  32/68/4 25/36/4 33/69/4
f  36/70/5 18/38/5 34/54/5
f  18/38/5 36/70/5 35/71/5
f  36/54/1 19/20/1 35/38/1
f  14/42/4 36/56/4 34/54/4
f  30/46/3 37/72/3 20/43/3
f  37/43/1 29/48/1 27/73/1
f  20/43/1 38/60/1 30/46/1
f  39/62/6 15/47/6 38/60/6
f  30/46/5 29/64/5 40/74/5
f  16/51/3 39/65/3 38/60/3
f  37/72/3 30/46/3 40/75/3
f  29/48/1 37/43/1 40/46/1

# Mesh 'mesh2_mesh2-geometry' with 60 faces
g mesh2_mesh2-geometry
usemtl material_1_24
f  11//1 10//1 9//1
f  12//1 9//1 10//1
f  11//4 13//4 10//4
f  9//5 14//5 11//5
f  9//3 12//3 15//3
f  10//6 16//6 12//6
f  13//4 17//4 10//4
f  18//4 13//4 11//4
f  19//5 11//5 14//5
f  14//5 9//5 20//5
f  21//3 15//3 12//3
f  22//3 9//3 15//3
f  21//6 12//6 16//6
f  16//6 10//6 23//6
f  24//4 10//4 17//4
f  13//5 25//5 17//5
f  13//2 18//2 25//2
f  19//4 18//4 11//4
f  26//5 19//5 14//5
f  27//5 20//5 9//5
f  20//2 25//2 14//2
f  15//3 21//3 28//3
f  29//3 9//3 22//3
f  22//2 15//2 30//2
f  31//6 21//6 16//6
f  24//6 23//6 10//6
f  23//2 25//2 16//2
f  24//2 17//2 32//2
f  33//5 17//5 25//5
f  34//2 25//2 18//2
f  35//4 18//4 19//4
f  26//2 36//2 19//2
f  26//3 14//3 36//3
f  37//5 20//5 27//5
f  27//3 9//3 29//3
f  14//2 25//2 34//2
f  38//2 25//2 20//2
f  28//2 21//2 39//2
f  28//5 39//5 15//5
f  22//6 30//6 29//6
f  38//2 30//2 15//2
f  31//2 39//2 21//2
f  31//4 16//4 39//4
f  32//6 23//6 24//6
f  16//2 25//2 38//2
f  23//3 32//3 25//3
f  33//2 32//2 17//2
f  33//3 25//3 32//3
f  34//6 18//6 36//6
f  35//6 36//6 18//6
f  35//2 19//2 36//2
f  34//3 36//3 14//3
f  20//4 37//4 30//4
f  27//2 29//2 37//2
f  30//2 38//2 20//2
f  38//5 15//5 39//5
f  40//6 29//6 30//6
f  38//4 39//4 16//4
f  40//4 30//4 37//4
f  40//2 37//2 29//2

